<?xml version="1.0" encoding="UTF-8" standalone="no"?>
<svg viewBox="0 0 31 12" version="1.1" xmlns="http://www.w3.org/2000/svg" xmlns:xlink="http://www.w3.org/1999/xlink">
    <!-- Generator: Sketch 3.8.2 (29753) - http://www.bohemiancoding.com/sketch -->
    <title>Wixlogo</title>
    <desc>Created with Sketch.</desc>
    <defs></defs>
    <g id="Page-1" stroke="none" stroke-width="1" fill="none" fill-rule="evenodd">
        <g id="Wixlogo">
            <path d="M14.0688,0.5742 C13.5688,1.0142 13.4228,1.7142 13.4228,1.7142 L11.7668,8.1122 L10.3898,2.8762 C10.2558,2.3192 10.0138,1.6312 9.6318,1.1662 C9.1438,0.5732 8.1538,0.5362 8.0478,0.5362 C7.9428,0.5362 6.9518,0.5732 6.4648,1.1662 C6.0818,1.6312 5.8398,2.3192 5.7058,2.8762 L4.3288,8.1122 L2.6728,1.7142 C2.6728,1.7142 2.5268,1.0142 2.0268,0.5742 C1.2158,-0.1388 -0.0002,0.0142 -0.0002,0.0142 L3.1708,11.9702 C3.1708,11.9702 4.2168,12.0452 4.7398,11.7792 C5.4278,11.4292 5.7548,11.1592 6.1708,9.5332 C6.5418,8.0822 7.5788,3.8222 7.6758,3.5192 C7.7238,3.3692 7.7838,3.0112 8.0478,3.0112 C8.3178,3.0112 8.3728,3.3692 8.4198,3.5192 C8.5158,3.8232 9.5538,8.0822 9.9248,9.5332 C10.3408,11.1592 10.6678,11.4292 11.3558,11.7792 C11.8788,12.0452 12.9248,11.9702 12.9248,11.9702 L16.0958,0.0142 C16.0958,0.0142 14.8798,-0.1388 14.0688,0.5742 Z M19.0209,1.9658 C19.0209,1.9658 18.8229,2.2718 18.3699,2.5238 C18.0799,2.6858 17.8009,2.7958 17.5009,2.9388 C16.9999,3.1788 16.8639,3.4458 16.8639,3.8538 L16.8639,3.9898 L16.8639,4.6198 L16.8639,4.6368 L16.8639,4.7788 L16.8639,11.9698 C16.8639,11.9698 17.6639,12.0708 18.1879,11.8048 C18.8609,11.4618 19.0159,11.1318 19.0219,9.6448 L19.0219,2.3988 L19.0209,2.3988 L19.0209,1.9658 Z M26.9243,6.0208 L30.9473,0.0538 C30.9473,0.0538 29.2493,-0.2352 28.4083,0.5288 C27.8703,1.0168 27.2693,1.8948 27.2693,1.8948 L25.7893,4.0228 C25.7173,4.1338 25.6233,4.2538 25.4733,4.2538 C25.3233,4.2538 25.2283,4.1338 25.1573,4.0228 L23.6773,1.8948 C23.6773,1.8948 23.0753,1.0168 22.5373,0.5288 C21.6963,-0.2352 19.9983,0.0538 19.9983,0.0538 L24.0213,6.0208 L20.0093,11.9698 C20.0093,11.9698 21.7773,12.1928 22.6183,11.4288 C23.1563,10.9408 23.6773,10.1468 23.6773,10.1468 L25.1573,8.0188 C25.2283,7.9078 25.3233,7.7878 25.4733,7.7878 C25.6233,7.7878 25.7173,7.9078 25.7893,8.0188 L27.2693,10.1468 C27.2693,10.1468 27.8203,10.9408 28.3583,11.4288 C29.1993,12.1928 30.9363,11.9698 30.9363,11.9698 L26.9243,6.0208 Z" id="Combined-Shape" fill="#1F303C"></path>
            <path d="M17.7057,0.224 C17.0927,0.544 16.8637,1.086 16.8637,2.58 C16.8637,2.58 17.1747,2.281 17.6347,2.114 C17.9707,1.993 18.2577,1.809 18.4237,1.687 C18.9417,1.309 19.0217,0.821 19.0217,0.001 C19.0217,0.001 18.1767,-0.022 17.7057,0.224" id="Fill-1" fill="#FAAC4D"></path>
        </g>
    </g>
</svg>